<svg width="160" height="50" viewBox="0 0 254 63" fill="none" xmlns="http://www.w3.org/2000/svg">
<path d="M28.2127 51.0032C37.8339 51.0032 42.501 42.1833 42.501 35.3184C42.501 28.3813 37.8339 19.4892 28.0692 19.4892C18.6632 19.4892 13.5657 27.5871 13.5657 35.1018C13.5657 43.3385 19.099 51.0032 28.2127 51.0032ZM27.9975 7.49231C44.3657 7.49231 56.0667 20.3556 56.0667 35.2462C56.0667 50.1367 44.4374 63.0001 27.9203 63.0001C11.199 63.0001 0 49.6313 0 35.896C0 32.358 0.502024 28.3758 2.07981 24.4712C4.88232 17.5397 13.1354 7.49231 27.9975 7.49231Z" fill="#ED2D6E"/>
<path d="M58 9.00012H71.4249V28.9123H86.5696V9.00012H100V62.0001H86.5696V40.8001H71.4249V62.0001H58V9.00012Z" fill="#ED2D6E"/>
<path d="M155.58 43.5996H145.66L155.58 28.8428V43.5996ZM153.583 9.00012L126.001 50.1165H117.497V9.00012H104V62.0001H133.304L138.44 54.3383H155.574V62.0001H169V9.00012H153.583Z" fill="#ED2D6E"/>
<path d="M254 62.0001H242V49.8206H254V62.0001ZM254 46.2817H242V9.00012H254V46.2817Z" fill="#ED2D6E"/>
<path d="M224.543 43.4279H214.591L224.543 28.5335V43.4279ZM194.885 50.0057H186.534V8.50568H173V62.0001H202.207L207.362 54.2668H224.543V62.0001H238V8.50012H222.574L194.885 50.0057ZM228.246 0.00012207L224.95 4.93346H238V0.00012207H228.246Z" fill="#ED2D6E"/>
</svg>
